# xmcd CD database file
#
# Track frame offsets:
#	150
#	52407
#	72896
#	96392
#	129568
#	150386
#	175061
#	220214
#	239308
#	259336
#	278326
#
# Disc length: 4068 seconds
#
# Revision: 0
# Processed by: cddbd v1.5.2PL0 Copyright (c) Steve Scherf et al.
# Submitted via: CDex 1.70beta2
#
DISCID=9e0fe20b
DTITLE=Richard Bargel and Klaus (Major)  Heuser - Men In Blues
DYEAR=1900
DGENRE=Blues
TTITLE0=Anytime You Want
TTITLE1=Double Dirty Mother
TTITLE2=Last One In The Row
TTITLE3=Bad Bad Whiskey
TTITLE4=Doing Time 'Bochum Prison Blue
TTITLE5=Empire State Express
TTITLE6=Losing Hand
TTITLE7=In The Pines
TTITLE8=There's A Man Going Around Tak
TTITLE9=What's The Matter Now
TTITLE10=The Family
EXTD=
EXTT0=
EXTT1=
EXTT2=
EXTT3=
EXTT4=
EXTT5=
EXTT6=
EXTT7=
EXTT8=
EXTT9=
EXTT10=
PLAYORDER=
